# xmcd
#
# Track frame offsets: 
#        150
#        23310
#        41097
#        56977
#        74553
#        91782
#        108527
#        126022
#        145112
#        164175
#        182640
#        196183
#
# Disc length: 2850 seconds
#
# Revision: 3
# Processed by: cddbd v1.5.2PL0 Copyright (c) Steve Scherf et al.
# Submitted via: ExactAudioCopy v1.0b3
#
DISCID=a90b200c
DTITLE=倉木麻衣 - touch Me!
DYEAR=2009
DGENRE=J-POP
TTITLE0=touch Me!
TTITLE1=一秒ごとに Love for you
TTITLE2=Break the Tone
TTITLE3=夢が咲く春
TTITLE4=I can't believe you!!
TTITLE5=Secret Lover
TTITLE6=Hello!
TTITLE7=24 Xmas time
TTITLE8=Catch
TTITLE9=You and Music and Dream
TTITLE10=TOP OF THE WORLD 〜The Carpenters Cover
TTITLE11=夢が咲く春 〜Akihito Tokunaga Mix
EXTD=
EXTT0=
EXTT1=
EXTT2=
EXTT3=
EXTT4=
EXTT5=
EXTT6=
EXTT7=
EXTT8=
EXTT9=
EXTT10=
EXTT11=
PLAYORDER=
